<svg width="36" height="36" viewBox="0 0 36 36" fill="none" xmlns="http://www.w3.org/2000/svg">
<mask id="mask0_201_3402" style="mask-type:alpha" maskUnits="userSpaceOnUse" x="0" y="0" width="36" height="36">
<rect width="36" height="36" fill="#D9D9D9"/>
</mask>
<g mask="url(#mask0_201_3402)">
<path d="M18.0001 34.5005L7.20006 26.4005C6.82506 26.1255 6.53131 25.7755 6.31881 25.3505C6.10631 24.9255 6.00006 24.4755 6.00006 24.0005V6.00049C6.00006 5.17549 6.29381 4.46924 6.88131 3.88174C7.46881 3.29424 8.17506 3.00049 9.00006 3.00049H27.0001C27.8251 3.00049 28.5313 3.29424 29.1188 3.88174C29.7063 4.46924 30.0001 5.17549 30.0001 6.00049V24.0005C30.0001 24.4755 29.8938 24.9255 29.6813 25.3505C29.4688 25.7755 29.1751 26.1255 28.8001 26.4005L18.0001 34.5005ZM16.4251 22.5005L24.9001 14.0255L22.8001 11.8505L16.4251 18.2255L13.2751 15.0755L11.1001 17.1755L16.4251 22.5005Z" fill="#34D399"/>
</g>
</svg>
