<svg width="17" height="17" viewBox="0 0 17 17" fill="none" xmlns="http://www.w3.org/2000/svg">
<g clip-path="url(#clip0_202_3692)">
<path d="M9.015 1.519C8.84363 1.50635 8.67184 1.50001 8.5 1.5V0.5C8.69654 0.500096 8.893 0.507434 9.089 0.522L9.015 1.519ZM11.019 1.969C10.6984 1.8453 10.3692 1.74537 10.034 1.67L10.253 0.694C10.636 0.78 11.013 0.894 11.379 1.036L11.019 1.969ZM12.389 2.679C12.246 2.58365 12.0996 2.49359 11.95 2.409L12.443 1.539C12.7849 1.73274 13.1121 1.95132 13.422 2.193L12.807 2.982C12.6714 2.87623 12.532 2.7755 12.389 2.68V2.679ZM14.223 4.469C14.0252 4.18798 13.8069 3.92192 13.57 3.673L14.294 2.983C14.564 3.268 14.814 3.573 15.041 3.893L14.223 4.469ZM14.967 5.821C14.9014 5.66246 14.83 5.50636 14.753 5.353L15.646 4.903C15.8226 5.25409 15.973 5.61774 16.096 5.991L15.146 6.304C15.0923 6.14087 15.0326 5.97976 14.967 5.821ZM15.497 8.328C15.4889 7.98434 15.4555 7.64174 15.397 7.303L16.382 7.133C16.449 7.519 16.488 7.911 16.498 8.303L15.498 8.328H15.497ZM15.366 9.866C15.399 9.696 15.426 9.527 15.447 9.356L16.44 9.479C16.392 9.86915 16.3151 10.2552 16.21 10.634L15.246 10.367C15.292 10.202 15.332 10.035 15.366 9.866ZM14.414 12.245C14.598 11.955 14.76 11.651 14.9 11.337L15.814 11.742C15.654 12.102 15.469 12.448 15.259 12.78L14.414 12.245ZM13.45 13.45C13.572 13.328 13.689 13.202 13.8 13.072L14.558 13.725C14.4296 13.8738 14.2959 14.0179 14.157 14.157L13.45 13.45Z" fill="#929292"/>
<path d="M8.49995 1.5C7.34883 1.50008 6.21549 1.78405 5.20033 2.32674C4.18516 2.86943 3.3195 3.6541 2.68001 4.61125C2.04052 5.5684 1.64694 6.66848 1.53414 7.81406C1.42134 8.95964 1.5928 10.1154 2.03333 11.1789C2.47385 12.2423 3.16985 13.1808 4.05968 13.9111C4.9495 14.6413 6.00569 15.1409 7.13468 15.3655C8.26368 15.5901 9.43064 15.5328 10.5322 15.1987C11.6338 14.8645 12.6359 14.2639 13.45 13.45L14.1569 14.157C13.2267 15.0878 12.0812 15.7747 10.822 16.157C9.56278 16.5393 8.22872 16.605 6.93801 16.3485C5.64731 16.0919 4.43981 15.521 3.4225 14.6862C2.40519 13.8515 1.60949 12.7787 1.10588 11.5629C0.602284 10.3471 0.406336 9.02588 0.535404 7.71627C0.664472 6.40666 1.11457 5.1491 1.84582 4.05502C2.57707 2.96094 3.56689 2.06411 4.72758 1.444C5.88827 0.823895 7.184 0.499651 8.49995 0.5V1.5Z" fill="#929292"/>
<path d="M8 3.5C8.13261 3.5 8.25979 3.55268 8.35355 3.64645C8.44732 3.74021 8.5 3.86739 8.5 4V9.21L11.748 11.066C11.8598 11.1334 11.9408 11.2419 11.9736 11.3683C12.0065 11.4946 11.9886 11.6288 11.9238 11.7422C11.8591 11.8556 11.7525 11.9391 11.627 11.9749C11.5014 12.0108 11.3669 11.9961 11.252 11.934L7.752 9.934C7.67547 9.89029 7.61186 9.82712 7.56761 9.75091C7.52335 9.67469 7.50003 9.58813 7.5 9.5V4C7.5 3.86739 7.55268 3.74021 7.64645 3.64645C7.74021 3.55268 7.86739 3.5 8 3.5Z" fill="#929292"/>
</g>
<defs>
<clipPath id="clip0_202_3692">
<rect width="16" height="16" fill="white" transform="translate(0.5 0.5)"/>
</clipPath>
</defs>
</svg>
