<svg width="37" height="36" viewBox="0 0 37 36" fill="none" xmlns="http://www.w3.org/2000/svg">
<mask id="mask0_201_3413" style="mask-type:alpha" maskUnits="userSpaceOnUse" x="0" y="0" width="37" height="36">
<rect x="0.5" width="36" height="36" fill="#D9D9D9"/>
</mask>
<g mask="url(#mask0_201_3413)">
<path d="M17.0376 31.5V28.275C15.7126 27.975 14.5689 27.4 13.6064 26.55C12.6439 25.7 11.9376 24.5 11.4876 22.95L14.2626 21.825C14.6376 23.025 15.1939 23.9375 15.9314 24.5625C16.6689 25.1875 17.6376 25.5 18.8376 25.5C19.8626 25.5 20.7314 25.2688 21.4439 24.8063C22.1564 24.3438 22.5126 23.625 22.5126 22.65C22.5126 21.775 22.2376 21.0813 21.6876 20.5688C21.1376 20.0563 19.8626 19.475 17.8626 18.825C15.7126 18.15 14.2376 17.3438 13.4376 16.4062C12.6376 15.4688 12.2376 14.325 12.2376 12.975C12.2376 11.35 12.7626 10.0875 13.8126 9.1875C14.8626 8.2875 15.9376 7.775 17.0376 7.65V4.5H20.0376V7.65C21.2876 7.85 22.3189 8.30625 23.1314 9.01875C23.9439 9.73125 24.5376 10.6 24.9126 11.625L22.1376 12.825C21.8376 12.025 21.4126 11.425 20.8626 11.025C20.3126 10.625 19.5626 10.425 18.6126 10.425C17.5126 10.425 16.6751 10.6687 16.1001 11.1562C15.5251 11.6438 15.2376 12.25 15.2376 12.975C15.2376 13.8 15.6126 14.45 16.3626 14.925C17.1126 15.4 18.4126 15.9 20.2626 16.425C21.9876 16.925 23.2939 17.7188 24.1814 18.8063C25.0689 19.8938 25.5126 21.15 25.5126 22.575C25.5126 24.35 24.9876 25.7 23.9376 26.625C22.8876 27.55 21.5876 28.125 20.0376 28.35V31.5H17.0376Z" fill="#FF8A01"/>
</g>
</svg>
