<svg width="93" height="92" viewBox="0 0 93 92" fill="none" xmlns="http://www.w3.org/2000/svg">
<circle cx="46.5" cy="46" r="43" fill="#FF0000" stroke="#FFBFBF" stroke-width="6"/>
<mask id="mask0_200_911" style="mask-type:alpha" maskUnits="userSpaceOnUse" x="16" y="16" width="61" height="60">
<rect x="16.5" y="16" width="60" height="60" fill="#D9D9D9"/>
</mask>
<g mask="url(#mask0_200_911)">
<path d="M29 66V61H33L37.9375 44.5625C38.2708 43.4792 38.8854 42.6146 39.7812 41.9688C40.6771 41.3229 41.6667 41 42.75 41H50.25C51.3333 41 52.3229 41.3229 53.2188 41.9688C54.1146 42.6146 54.7292 43.4792 55.0625 44.5625L60 61H64V66H29ZM38.25 61H54.75L50.25 46H42.75L38.25 61ZM44 36V23.5H49V36H44ZM58.875 42.1875L55.3125 38.625L64.1875 29.8125L67.6875 33.3125L58.875 42.1875ZM61.5 53.5V48.5H74V53.5H61.5ZM34.125 42.1875L25.3125 33.3125L28.8125 29.8125L37.6875 38.625L34.125 42.1875ZM19 53.5V48.5H31.5V53.5H19Z" fill="white"/>
</g>
</svg>
