	<svg
							width="19"
							height="19"
							viewBox="0 0 19 19"
							fill="none"
							xmlns="http://www.w3.org/2000/svg"
						>
							<mask
								id="mask0_3_218"
								style="mask-type:alpha"
								maskUnits="userSpaceOnUse"
								x="0"
								y="0"
								width="19"
								height="19"
							>
								<rect x="0.588989" y="0.346436" width="17.9449" height="17.9449" fill="#D9D9D9" />
							</mask>
							<g mask="url(#mask0_3_218)">
								<path
									d="M15.5057 16.0483C13.948 16.0483 12.4089 15.7087 10.8886 15.0295C9.36828 14.3503 7.98503 13.3877 6.73885 12.1415C5.49268 10.8953 4.53001 9.51207 3.85084 7.99174C3.17168 6.4714 2.83209 4.93238 2.83209 3.37466C2.83209 3.15035 2.90686 2.96342 3.0564 2.81388C3.20594 2.66434 3.39287 2.58957 3.61718 2.58957H6.64539C6.81985 2.58957 6.97562 2.64876 7.1127 2.76715C7.24978 2.88554 7.33078 3.02573 7.35571 3.18773L7.84172 5.8047C7.86664 6.00409 7.86041 6.17232 7.82302 6.3094C7.78564 6.44648 7.7171 6.56487 7.6174 6.66456L5.80422 8.49644C6.05346 8.95752 6.34942 9.40303 6.69212 9.83296C7.03482 10.2629 7.41179 10.6772 7.82302 11.076C8.20934 11.4623 8.61435 11.8206 9.03804 12.1508C9.46174 12.4811 9.91037 12.7833 10.3839 13.0574L12.141 11.3003C12.2532 11.1882 12.3996 11.1041 12.5803 11.048C12.761 10.9919 12.9386 10.9763 13.113 11.0013L15.6926 11.5246C15.8671 11.5745 16.0104 11.6648 16.1226 11.7957C16.2347 11.9265 16.2908 12.073 16.2908 12.235V15.2632C16.2908 15.4875 16.216 15.6744 16.0665 15.8239C15.9169 15.9735 15.73 16.0483 15.5057 16.0483ZM5.0939 7.0758L6.32761 5.84209L6.00984 4.08498H4.3462C4.4085 4.59591 4.49574 5.10061 4.60789 5.59908C4.72005 6.09755 4.88205 6.58979 5.0939 7.0758ZM11.7859 13.7678C12.2719 13.9796 12.7672 14.1478 13.2719 14.2725C13.7766 14.3971 14.2844 14.4781 14.7954 14.5155V12.8705L13.0383 12.5154L11.7859 13.7678Z"
									fill="#666666"
								/>
							</g>
						</svg>