<svg width="36" height="36" viewBox="0 0 36 36" fill="none" xmlns="http://www.w3.org/2000/svg">
<mask id="mask0_201_3377" style="mask-type:alpha" maskUnits="userSpaceOnUse" x="0" y="0" width="36" height="36">
<rect width="36" height="36" fill="#D9D9D9"/>
</mask>
<g mask="url(#mask0_201_3377)">
<path d="M11.4374 9.60049L15.6374 4.16299C15.9374 3.76299 16.2937 3.46924 16.7062 3.28174C17.1187 3.09424 17.5499 3.00049 17.9999 3.00049C18.4499 3.00049 18.8812 3.09424 19.2937 3.28174C19.7062 3.46924 20.0624 3.76299 20.3624 4.16299L24.5624 9.60049L30.9374 11.738C31.5874 11.938 32.0999 12.3067 32.4749 12.8442C32.8499 13.3817 33.0374 13.9755 33.0374 14.6255C33.0374 14.9255 32.9937 15.2255 32.9062 15.5255C32.8187 15.8255 32.6749 16.113 32.4749 16.388L28.3499 22.238L28.4999 28.388C28.5249 29.263 28.2374 30.0005 27.6374 30.6005C27.0374 31.2005 26.3374 31.5005 25.5374 31.5005C25.4874 31.5005 25.2124 31.463 24.7124 31.388L17.9999 29.513L11.2874 31.388C11.1624 31.438 11.0249 31.4692 10.8749 31.4817C10.7249 31.4942 10.5874 31.5005 10.4624 31.5005C9.66244 31.5005 8.96244 31.2005 8.36244 30.6005C7.76244 30.0005 7.47494 29.263 7.49994 28.388L7.64994 22.2005L3.56244 16.388C3.36244 16.113 3.21869 15.8255 3.13119 15.5255C3.04369 15.2255 2.99994 14.9255 2.99994 14.6255C2.99994 14.0005 3.18119 13.4192 3.54369 12.8817C3.90619 12.3442 4.41244 11.963 5.06244 11.738L11.4374 9.60049Z" fill="#8E68FF"/>
</g>
</svg>
